<mxfile host="app.diagrams.net" modified="2022-05-05T16:14:48.460Z" agent="5.0 (Windows NT 10.0; Win64; x64) AppleWebKit/537.36 (KHTML, like Gecko) Chrome/100.0.4896.127 Safari/537.36 Edg/100.0.1185.50" etag="fBvWXh7JGHrLVU3wc3Z4" version="17.4.4" type="github">
  <diagram id="kgpKYQtTHZ0yAKxKKP6v" name="Page-1">
    <mxGraphModel dx="2272" dy="1862" grid="1" gridSize="10" guides="1" tooltips="1" connect="1" arrows="1" fold="1" page="1" pageScale="1" pageWidth="850" pageHeight="1100" math="0" shadow="0">
      <root>
        <mxCell id="0" />
        <mxCell id="1" parent="0" />
        <mxCell id="3nuBFxr9cyL0pnOWT2aG-1" value=":Object" style="shape=umlLifeline;perimeter=lifelinePerimeter;container=1;collapsible=0;recursiveResize=0;rounded=0;shadow=0;strokeWidth=1;" parent="1" vertex="1">
          <mxGeometry x="-145" y="-60" width="100" height="300" as="geometry" />
        </mxCell>
        <mxCell id="3nuBFxr9cyL0pnOWT2aG-2" value="" style="points=[];perimeter=orthogonalPerimeter;rounded=0;shadow=0;strokeWidth=1;" parent="3nuBFxr9cyL0pnOWT2aG-1" vertex="1">
          <mxGeometry x="45" y="70" width="10" height="190" as="geometry" />
        </mxCell>
        <mxCell id="3nuBFxr9cyL0pnOWT2aG-3" value="dispatch" style="verticalAlign=bottom;startArrow=oval;endArrow=block;startSize=8;shadow=0;strokeWidth=1;" parent="3nuBFxr9cyL0pnOWT2aG-1" target="3nuBFxr9cyL0pnOWT2aG-2" edge="1">
          <mxGeometry relative="1" as="geometry">
            <mxPoint x="-15" y="70" as="sourcePoint" />
          </mxGeometry>
        </mxCell>
        <mxCell id="3nuBFxr9cyL0pnOWT2aG-4" value="" style="points=[];perimeter=orthogonalPerimeter;rounded=0;shadow=0;strokeWidth=1;" parent="3nuBFxr9cyL0pnOWT2aG-1" vertex="1">
          <mxGeometry x="50" y="120" width="10" height="80" as="geometry" />
        </mxCell>
        <mxCell id="3nuBFxr9cyL0pnOWT2aG-5" value=":Object" style="shape=umlLifeline;perimeter=lifelinePerimeter;container=1;collapsible=0;recursiveResize=0;rounded=0;shadow=0;strokeWidth=1;" parent="1" vertex="1">
          <mxGeometry x="35" y="-60" width="100" height="300" as="geometry" />
        </mxCell>
        <mxCell id="3nuBFxr9cyL0pnOWT2aG-6" value="" style="points=[];perimeter=orthogonalPerimeter;rounded=0;shadow=0;strokeWidth=1;" parent="3nuBFxr9cyL0pnOWT2aG-5" vertex="1">
          <mxGeometry x="45" y="80" width="10" height="160" as="geometry" />
        </mxCell>
        <mxCell id="3nuBFxr9cyL0pnOWT2aG-7" value="return" style="verticalAlign=bottom;endArrow=open;dashed=1;endSize=8;exitX=0;exitY=0.95;shadow=0;strokeWidth=1;" parent="1" source="3nuBFxr9cyL0pnOWT2aG-6" target="3nuBFxr9cyL0pnOWT2aG-2" edge="1">
          <mxGeometry relative="1" as="geometry">
            <mxPoint x="10" y="96" as="targetPoint" />
          </mxGeometry>
        </mxCell>
        <mxCell id="3nuBFxr9cyL0pnOWT2aG-8" value="dispatch" style="verticalAlign=bottom;endArrow=block;entryX=0;entryY=0;shadow=0;strokeWidth=1;" parent="1" source="3nuBFxr9cyL0pnOWT2aG-2" target="3nuBFxr9cyL0pnOWT2aG-6" edge="1">
          <mxGeometry relative="1" as="geometry">
            <mxPoint x="10" y="20" as="sourcePoint" />
          </mxGeometry>
        </mxCell>
        <mxCell id="3nuBFxr9cyL0pnOWT2aG-9" value="callback" style="verticalAlign=bottom;endArrow=block;entryX=1;entryY=0;shadow=0;strokeWidth=1;" parent="1" source="3nuBFxr9cyL0pnOWT2aG-6" target="3nuBFxr9cyL0pnOWT2aG-4" edge="1">
          <mxGeometry relative="1" as="geometry">
            <mxPoint x="-25" y="60" as="sourcePoint" />
          </mxGeometry>
        </mxCell>
        <mxCell id="3nuBFxr9cyL0pnOWT2aG-10" value="return" style="verticalAlign=bottom;endArrow=open;dashed=1;endSize=8;exitX=1;exitY=0.95;shadow=0;strokeWidth=1;" parent="1" source="3nuBFxr9cyL0pnOWT2aG-4" target="3nuBFxr9cyL0pnOWT2aG-6" edge="1">
          <mxGeometry relative="1" as="geometry">
            <mxPoint x="-25" y="117" as="targetPoint" />
          </mxGeometry>
        </mxCell>
        <mxCell id="LY62BqVsODy2IkJWC0Tn-2" style="edgeStyle=orthogonalEdgeStyle;rounded=0;orthogonalLoop=1;jettySize=auto;html=1;dashed=1;endArrow=none;endFill=0;" edge="1" parent="1" source="LY62BqVsODy2IkJWC0Tn-1">
          <mxGeometry relative="1" as="geometry">
            <mxPoint x="250" y="560" as="targetPoint" />
          </mxGeometry>
        </mxCell>
        <mxCell id="LY62BqVsODy2IkJWC0Tn-1" value="MainThread&lt;br&gt;(Lim)" style="rounded=0;whiteSpace=wrap;html=1;" vertex="1" parent="1">
          <mxGeometry x="190" y="80" width="120" height="60" as="geometry" />
        </mxCell>
        <mxCell id="LY62BqVsODy2IkJWC0Tn-7" style="edgeStyle=orthogonalEdgeStyle;rounded=0;orthogonalLoop=1;jettySize=auto;html=1;dashed=1;endArrow=none;endFill=0;startArrow=none;" edge="1" parent="1" source="LY62BqVsODy2IkJWC0Tn-14">
          <mxGeometry relative="1" as="geometry">
            <mxPoint x="590" y="580" as="targetPoint" />
          </mxGeometry>
        </mxCell>
        <mxCell id="LY62BqVsODy2IkJWC0Tn-4" value="oamThread" style="rounded=0;whiteSpace=wrap;html=1;" vertex="1" parent="1">
          <mxGeometry x="530" y="80" width="120" height="60" as="geometry" />
        </mxCell>
        <mxCell id="LY62BqVsODy2IkJWC0Tn-5" style="edgeStyle=orthogonalEdgeStyle;rounded=0;orthogonalLoop=1;jettySize=auto;html=1;dashed=1;endArrow=none;endFill=0;" edge="1" parent="1" source="LY62BqVsODy2IkJWC0Tn-1">
          <mxGeometry relative="1" as="geometry">
            <mxPoint x="250" y="560" as="targetPoint" />
            <mxPoint x="250" y="140" as="sourcePoint" />
            <Array as="points">
              <mxPoint x="250" y="270" />
              <mxPoint x="250" y="270" />
            </Array>
          </mxGeometry>
        </mxCell>
        <mxCell id="LY62BqVsODy2IkJWC0Tn-6" style="edgeStyle=orthogonalEdgeStyle;rounded=0;orthogonalLoop=1;jettySize=auto;html=1;dashed=1;endArrow=none;endFill=0;startArrow=none;" edge="1" parent="1" source="LY62BqVsODy2IkJWC0Tn-20">
          <mxGeometry relative="1" as="geometry">
            <mxPoint x="250" y="560" as="targetPoint" />
            <mxPoint x="250" y="140" as="sourcePoint" />
            <Array as="points">
              <mxPoint x="250" y="230" />
              <mxPoint x="250" y="230" />
            </Array>
          </mxGeometry>
        </mxCell>
        <mxCell id="LY62BqVsODy2IkJWC0Tn-10" value="" style="html=1;points=[];perimeter=orthogonalPerimeter;" vertex="1" parent="1">
          <mxGeometry x="245" y="210" width="10" height="200" as="geometry" />
        </mxCell>
        <mxCell id="LY62BqVsODy2IkJWC0Tn-14" value="" style="html=1;points=[];perimeter=orthogonalPerimeter;" vertex="1" parent="1">
          <mxGeometry x="585" y="210" width="10" height="200" as="geometry" />
        </mxCell>
        <mxCell id="LY62BqVsODy2IkJWC0Tn-15" value="" style="edgeStyle=orthogonalEdgeStyle;rounded=0;orthogonalLoop=1;jettySize=auto;html=1;dashed=1;endArrow=none;endFill=0;" edge="1" parent="1" source="LY62BqVsODy2IkJWC0Tn-4" target="LY62BqVsODy2IkJWC0Tn-14">
          <mxGeometry relative="1" as="geometry">
            <mxPoint x="590" y="580" as="targetPoint" />
            <mxPoint x="590" y="140" as="sourcePoint" />
          </mxGeometry>
        </mxCell>
        <mxCell id="LY62BqVsODy2IkJWC0Tn-17" value="" style="html=1;points=[];perimeter=orthogonalPerimeter;" vertex="1" parent="1">
          <mxGeometry x="590" y="270" width="10" height="40" as="geometry" />
        </mxCell>
        <mxCell id="LY62BqVsODy2IkJWC0Tn-18" value="self call" style="edgeStyle=orthogonalEdgeStyle;html=1;align=left;spacingLeft=2;endArrow=block;rounded=0;entryX=1;entryY=0;" edge="1" target="LY62BqVsODy2IkJWC0Tn-17" parent="1">
          <mxGeometry relative="1" as="geometry">
            <mxPoint x="595" y="250" as="sourcePoint" />
            <Array as="points">
              <mxPoint x="595" y="240" />
              <mxPoint x="625" y="240" />
              <mxPoint x="625" y="270" />
            </Array>
          </mxGeometry>
        </mxCell>
        <mxCell id="LY62BqVsODy2IkJWC0Tn-21" value="&#xa;&#xa;&lt;span style=&quot;color: rgb(0, 0, 0); font-family: helvetica; font-size: 11px; font-style: normal; font-weight: 400; letter-spacing: normal; text-align: center; text-indent: 0px; text-transform: none; word-spacing: 0px; background-color: rgb(255, 255, 255); display: inline; float: none;&quot;&gt;ExecutionService.execute()&lt;/span&gt;&#xa;&#xa;" style="edgeStyle=orthogonalEdgeStyle;html=1;align=left;spacingLeft=2;endArrow=block;rounded=0;entryX=1;entryY=0;" edge="1" target="LY62BqVsODy2IkJWC0Tn-20" parent="1">
          <mxGeometry relative="1" as="geometry">
            <mxPoint x="255" y="240" as="sourcePoint" />
            <Array as="points">
              <mxPoint x="285" y="240" />
            </Array>
          </mxGeometry>
        </mxCell>
        <mxCell id="LY62BqVsODy2IkJWC0Tn-23" value="" style="html=1;points=[];perimeter=orthogonalPerimeter;" vertex="1" parent="1">
          <mxGeometry x="255" y="325" width="20" height="85" as="geometry" />
        </mxCell>
        <mxCell id="LY62BqVsODy2IkJWC0Tn-24" value="SendHttpRequestTask.onExecution()" style="edgeStyle=orthogonalEdgeStyle;html=1;align=left;spacingLeft=2;endArrow=block;rounded=0;entryX=1;entryY=0;exitX=0.5;exitY=0.193;exitDx=0;exitDy=0;exitPerimeter=0;" edge="1" target="LY62BqVsODy2IkJWC0Tn-23" parent="1" source="LY62BqVsODy2IkJWC0Tn-20">
          <mxGeometry relative="1" as="geometry">
            <mxPoint x="270" y="290" as="sourcePoint" />
            <Array as="points">
              <mxPoint x="260" y="290" />
              <mxPoint x="285" y="290" />
              <mxPoint x="285" y="325" />
            </Array>
          </mxGeometry>
        </mxCell>
        <mxCell id="LY62BqVsODy2IkJWC0Tn-20" value="" style="html=1;points=[];perimeter=orthogonalPerimeter;" vertex="1" parent="1">
          <mxGeometry x="255" y="260" width="10" height="150" as="geometry" />
        </mxCell>
      </root>
    </mxGraphModel>
  </diagram>
</mxfile>
